<svg width="22" height="30" viewBox="0 0 22 30" fill="none" xmlns="http://www.w3.org/2000/svg">
<path d="M10.7363 30C11.5832 30 12.2704 29.2364 12.2704 28.2955L12.2704 5.81932L18.8547 13.1352C19.453 13.8 20.4257 13.8 21.0239 13.1352C21.6222 12.4705 21.6222 11.3898 21.0239 10.725L11.8194 0.49773C11.6783 0.340912 11.5095 0.214776 11.3224 0.129549C11.1352 0.0477308 10.9388 1.90735e-06 10.7425 1.90735e-06H10.7363C10.5369 1.90735e-06 10.3375 0.0443211 10.1503 0.132957C9.96315 0.218185 9.7944 0.344321 9.65327 0.501139L0.448722 10.7284C-0.149574 11.3932 -0.149574 12.4739 0.448722 13.1386C1.04702 13.8034 2.01963 13.8034 2.61793 13.1386L9.20224 5.81932L9.20224 28.2955C9.20224 29.2364 9.88952 30 10.7363 30Z" fill="white"/>
</svg>
