<svg width="31" height="22" viewBox="0 0 31 22" fill="none" xmlns="http://www.w3.org/2000/svg">
<path d="M0.736328 11C0.736328 11.8468 1.49996 12.5341 2.44087 12.5341H24.917L17.6011 19.1184C16.9363 19.7167 16.9363 20.6893 17.6011 21.2876C18.2659 21.8859 19.3466 21.8859 20.0113 21.2876L30.2386 12.0831C30.3954 11.9419 30.5216 11.7732 30.6068 11.586C30.6886 11.3989 30.7363 11.2025 30.7363 11.0061V11C30.7363 10.8006 30.692 10.6011 30.6034 10.414C30.5181 10.2268 30.392 10.0581 30.2352 9.91694L20.0079 0.712393C19.3431 0.114098 18.2625 0.114098 17.5977 0.712393C16.9329 1.31069 16.9329 2.2833 17.5977 2.8816L24.917 9.46592H2.44087C1.49996 9.46592 0.736328 10.1532 0.736328 11Z" fill="white"/>
</svg>
